<svg width="682" height="159" viewBox="0 0 682 159" fill="none" xmlns="http://www.w3.org/2000/svg">
<path d="M31.6922 66L20.6754 46.0037H17.5816V66H4.67837V13.0287H26.3347C30.51 13.0287 34.0565 13.7582 36.9742 15.217C39.9422 16.6759 42.1557 18.6881 43.6145 21.2536C45.0734 23.7689 45.8028 26.586 45.8028 29.7049C45.8028 33.2262 44.7967 36.3703 42.7845 39.1371C40.8226 41.9039 37.9049 43.8658 34.0314 45.0228L46.2555 66H31.6922ZM17.5816 36.8734H25.5801C27.9445 36.8734 29.7052 36.2948 30.8622 35.1378C32.0695 33.9808 32.6732 32.3459 32.6732 30.2331C32.6732 28.2209 32.0695 26.6363 30.8622 25.4793C29.7052 24.3222 27.9445 23.7437 25.5801 23.7437H17.5816V36.8734ZM91.3297 44.2682C91.3297 45.4755 91.2542 46.7332 91.1033 48.0411H61.9012C62.1024 50.6569 62.9324 52.6692 64.3913 54.0777C65.9004 55.4359 67.7366 56.1151 69.8997 56.1151C73.1192 56.1151 75.3578 54.7568 76.6154 52.0403H90.3487C89.6445 54.8071 88.3617 57.2972 86.5004 59.5106C84.6894 61.7241 82.4005 63.4596 79.6337 64.7172C76.867 65.9748 73.7732 66.6037 70.3524 66.6037C66.2274 66.6037 62.5552 65.7233 59.3356 63.9626C56.1161 62.202 53.6009 59.6867 51.7899 56.4169C49.9789 53.1471 49.0734 49.3239 49.0734 44.9473C49.0734 40.5708 49.9537 36.7476 51.7144 33.4778C53.5254 30.2079 56.0407 27.6927 59.2602 25.932C62.4797 24.1713 66.1771 23.291 70.3524 23.291C74.4272 23.291 78.0491 24.1462 81.2183 25.8565C84.3876 27.5669 86.8525 30.0067 88.6132 33.1759C90.4242 36.3452 91.3297 40.0426 91.3297 44.2682ZM78.1246 40.8726C78.1246 38.6592 77.37 36.8985 75.8609 35.5906C74.3517 34.2826 72.4653 33.6287 70.2015 33.6287C68.0384 33.6287 66.2023 34.2575 64.6931 35.5151C63.2343 36.7727 62.3288 38.5586 61.9767 40.8726H78.1246ZM114.813 53.9268L123.943 23.8946H137.677L122.736 66H106.814L91.8738 23.8946H105.683L114.813 53.9268ZM160.01 66.6037C155.885 66.6037 152.163 65.7233 148.843 63.9626C145.573 62.202 142.982 59.6867 141.07 56.4169C139.209 53.1471 138.278 49.3239 138.278 44.9473C138.278 40.6211 139.234 36.8231 141.146 33.5532C143.057 30.2331 145.673 27.6927 148.993 25.932C152.314 24.1713 156.036 23.291 160.161 23.291C164.286 23.291 168.009 24.1713 171.329 25.932C174.649 27.6927 177.265 30.2331 179.177 33.5532C181.088 36.8231 182.044 40.6211 182.044 44.9473C182.044 49.2736 181.063 53.0967 179.101 56.4169C177.189 59.6867 174.548 62.202 171.178 63.9626C167.858 65.7233 164.135 66.6037 160.01 66.6037ZM160.01 55.4359C162.475 55.4359 164.563 54.5304 166.273 52.7195C168.034 50.9085 168.914 48.3178 168.914 44.9473C168.914 41.5769 168.059 38.9862 166.349 37.1752C164.689 35.3642 162.626 34.4587 160.161 34.4587C157.646 34.4587 155.558 35.3642 153.898 37.1752C152.238 38.9359 151.408 41.5266 151.408 44.9473C151.408 48.3178 152.213 50.9085 153.823 52.7195C155.483 54.5304 157.545 55.4359 160.01 55.4359ZM199.529 10.1614V66H186.626V10.1614H199.529ZM248.193 23.8946V66H235.29V60.2652C233.982 62.1265 232.196 63.6357 229.932 64.7927C227.719 65.8994 225.254 66.4527 222.538 66.4527C219.318 66.4527 216.476 65.7485 214.011 64.3399C211.546 62.8811 209.634 60.7934 208.276 58.0769C206.918 55.3605 206.239 52.1661 206.239 48.4938V23.8946H219.066V46.7583C219.066 49.5754 219.796 51.7637 221.255 53.3231C222.714 54.8826 224.675 55.6623 227.14 55.6623C229.656 55.6623 231.643 54.8826 233.102 53.3231C234.56 51.7637 235.29 49.5754 235.29 46.7583V23.8946H248.193ZM278.665 55.0586V66H272.1C267.422 66 263.775 64.8681 261.159 62.6044C258.543 60.2904 257.235 56.5426 257.235 51.3612V34.6096H252.104V23.8946H257.235V13.6324H270.138V23.8946H278.59V34.6096H270.138V51.5121C270.138 52.7698 270.44 53.6753 271.044 54.2286C271.647 54.782 272.654 55.0586 274.062 55.0586H278.665ZM290.078 19.5181C287.814 19.5181 285.953 18.8641 284.494 17.5562C283.086 16.198 282.381 14.5379 282.381 12.576C282.381 10.5638 283.086 8.90373 284.494 7.59579C285.953 6.23756 287.814 5.55844 290.078 5.55844C292.291 5.55844 294.102 6.23756 295.511 7.59579C296.97 8.90373 297.699 10.5638 297.699 12.576C297.699 14.5379 296.97 16.198 295.511 17.5562C294.102 18.8641 292.291 19.5181 290.078 19.5181ZM296.492 23.8946V66H283.589V23.8946H296.492ZM322.745 66.6037C318.62 66.6037 314.898 65.7233 311.578 63.9626C308.308 62.202 305.717 59.6867 303.805 56.4169C301.944 53.1471 301.013 49.3239 301.013 44.9473C301.013 40.6211 301.969 36.8231 303.881 33.5532C305.792 30.2331 308.408 27.6927 311.728 25.932C315.049 24.1713 318.771 23.291 322.896 23.291C327.021 23.291 330.744 24.1713 334.064 25.932C337.384 27.6927 340 30.2331 341.911 33.5532C343.823 36.8231 344.779 40.6211 344.779 44.9473C344.779 49.2736 343.798 53.0967 341.836 56.4169C339.924 59.6867 337.283 62.202 333.913 63.9626C330.593 65.7233 326.87 66.6037 322.745 66.6037ZM322.745 55.4359C325.21 55.4359 327.298 54.5304 329.008 52.7195C330.769 50.9085 331.649 48.3178 331.649 44.9473C331.649 41.5769 330.794 38.9862 329.084 37.1752C327.424 35.3642 325.361 34.4587 322.896 34.4587C320.381 34.4587 318.293 35.3642 316.633 37.1752C314.973 38.9359 314.143 41.5266 314.143 44.9473C314.143 48.3178 314.948 50.9085 316.558 52.7195C318.218 54.5304 320.28 55.4359 322.745 55.4359ZM375.016 23.4419C379.946 23.4419 383.87 25.0517 386.788 28.2712C389.756 31.4404 391.24 35.8169 391.24 41.4008V66H378.412V43.1363C378.412 40.3193 377.682 38.131 376.223 36.5715C374.765 35.0121 372.803 34.2323 370.338 34.2323C367.873 34.2323 365.911 35.0121 364.452 36.5715C362.993 38.131 362.264 40.3193 362.264 43.1363V66H349.361V23.8946H362.264V29.4785C363.572 27.6172 365.332 26.1584 367.546 25.102C369.759 23.9953 372.249 23.4419 375.016 23.4419ZM404.432 19.5181C402.168 19.5181 400.307 18.8641 398.848 17.5562C397.439 16.198 396.735 14.5379 396.735 12.576C396.735 10.5638 397.439 8.90373 398.848 7.59579C400.307 6.23756 402.168 5.55844 404.432 5.55844C406.645 5.55844 408.456 6.23756 409.865 7.59579C411.323 8.90373 412.053 10.5638 412.053 12.576C412.053 14.5379 411.323 16.198 409.865 17.5562C408.456 18.8641 406.645 19.5181 404.432 19.5181ZM410.846 23.8946V66H397.942V23.8946H410.846ZM430.006 55.3605H448.267V66H415.593V55.7378L433.1 34.5342H415.744V23.8946H447.889V34.1569L430.006 55.3605ZM492.794 44.2682C492.794 45.4755 492.718 46.7332 492.567 48.0411H463.365C463.566 50.6569 464.396 52.6692 465.855 54.0777C467.364 55.4359 469.201 56.1151 471.364 56.1151C474.583 56.1151 476.822 54.7568 478.079 52.0403H491.813C491.108 54.8071 489.826 57.2972 487.964 59.5106C486.153 61.7241 483.865 63.4596 481.098 64.7172C478.331 65.9748 475.237 66.6037 471.816 66.6037C467.691 66.6037 464.019 65.7233 460.8 63.9626C457.58 62.202 455.065 59.6867 453.254 56.4169C451.443 53.1471 450.537 49.3239 450.537 44.9473C450.537 40.5708 451.418 36.7476 453.178 33.4778C454.989 30.2079 457.505 27.6927 460.724 25.932C463.944 24.1713 467.641 23.291 471.816 23.291C475.891 23.291 479.513 24.1462 482.682 25.8565C485.852 27.5669 488.317 30.0067 490.077 33.1759C491.888 36.3452 492.794 40.0426 492.794 44.2682ZM479.589 40.8726C479.589 38.6592 478.834 36.8985 477.325 35.5906C475.816 34.2826 473.929 33.6287 471.666 33.6287C469.502 33.6287 467.666 34.2575 466.157 35.5151C464.698 36.7727 463.793 38.5586 463.441 40.8726H479.589ZM556.489 13.0287L538.153 48.4938V66H525.25V48.4938L506.914 13.0287H521.553L531.815 35.2133L542.002 13.0287H556.489ZM578.591 66.6037C574.466 66.6037 570.743 65.7233 567.423 63.9626C564.153 62.202 561.563 59.6867 559.651 56.4169C557.79 53.1471 556.859 49.3239 556.859 44.9473C556.859 40.6211 557.815 36.8231 559.726 33.5532C561.638 30.2331 564.254 27.6927 567.574 25.932C570.894 24.1713 574.617 23.291 578.742 23.291C582.867 23.291 586.589 24.1713 589.909 25.932C593.23 27.6927 595.845 30.2331 597.757 33.5532C599.669 36.8231 600.624 40.6211 600.624 44.9473C600.624 49.2736 599.644 53.0967 597.682 56.4169C595.77 59.6867 593.129 62.202 589.759 63.9626C586.438 65.7233 582.716 66.6037 578.591 66.6037ZM578.591 55.4359C581.056 55.4359 583.143 54.5304 584.854 52.7195C586.614 50.9085 587.495 48.3178 587.495 44.9473C587.495 41.5769 586.64 38.9862 584.929 37.1752C583.269 35.3642 581.207 34.4587 578.742 34.4587C576.226 34.4587 574.139 35.3642 572.479 37.1752C570.819 38.9359 569.989 41.5266 569.989 44.9473C569.989 48.3178 570.794 50.9085 572.403 52.7195C574.063 54.5304 576.126 55.4359 578.591 55.4359ZM646.783 23.8946V66H633.88V60.2652C632.572 62.1265 630.786 63.6357 628.523 64.7927C626.309 65.8994 623.844 66.4527 621.128 66.4527C617.908 66.4527 615.066 65.7485 612.601 64.3399C610.136 62.8811 608.224 60.7934 606.866 58.0769C605.508 55.3605 604.829 52.1661 604.829 48.4938V23.8946H617.657V46.7583C617.657 49.5754 618.386 51.7637 619.845 53.3231C621.304 54.8826 623.266 55.6623 625.731 55.6623C628.246 55.6623 630.233 54.8826 631.692 53.3231C633.151 51.7637 633.88 49.5754 633.88 46.7583V23.8946H646.783ZM666.691 30.9122C668.2 28.5982 670.087 26.7872 672.35 25.4793C674.614 24.121 677.129 23.4419 679.896 23.4419V37.0997H676.35C673.13 37.0997 670.716 37.804 669.106 39.2125C667.496 40.5708 666.691 42.9854 666.691 46.4565V66H653.788V23.8946H666.691V30.9122ZM429.919 103.895L418.525 146H404.264L397.623 118.684L390.757 146H376.571L365.101 103.895H378.004L383.966 134.002L391.059 103.895H404.716L411.885 133.851L417.771 103.895H429.919ZM439.066 99.5181C436.802 99.5181 434.941 98.8641 433.482 97.5562C432.073 96.198 431.369 94.5379 431.369 92.576C431.369 90.5638 432.073 88.9037 433.482 87.5958C434.941 86.2376 436.802 85.5584 439.066 85.5584C441.279 85.5584 443.09 86.2376 444.498 87.5958C445.957 88.9037 446.687 90.5638 446.687 92.576C446.687 94.5379 445.957 96.198 444.498 97.5562C443.09 98.8641 441.279 99.5181 439.066 99.5181ZM445.479 103.895V146H432.576V103.895H445.479ZM476.034 135.059V146H469.469C464.791 146 461.144 144.868 458.528 142.604C455.912 140.29 454.604 136.543 454.604 131.361V114.61H449.473V103.895H454.604V93.6324H467.507V103.895H475.958V114.61H467.507V131.512C467.507 132.77 467.809 133.675 468.413 134.229C469.016 134.782 470.022 135.059 471.431 135.059H476.034ZM506.839 103.442C511.669 103.442 515.542 105.052 518.46 108.271C521.378 111.44 522.836 115.817 522.836 121.401V146H510.009V123.136C510.009 120.319 509.279 118.131 507.82 116.572C506.362 115.012 504.4 114.232 501.935 114.232C499.47 114.232 497.508 115.012 496.049 116.572C494.59 118.131 493.861 120.319 493.861 123.136V146H480.957V90.1614H493.861V109.554C495.169 107.693 496.955 106.209 499.218 105.102C501.482 103.995 504.022 103.442 506.839 103.442ZM576.241 136.643H556.471L553.302 146H539.795L558.961 93.0287H573.902L593.068 146H579.41L576.241 136.643ZM572.921 126.683L566.356 107.29L559.867 126.683H572.921ZM609.541 93.0287V146H596.638V93.0287H609.541Z" fill="white"/>
<path d="M77.5704 93.0287L63.7617 146H48.142L39.6907 111.139L30.9376 146H15.3179L1.88644 93.0287H15.6952L23.3164 131.588L32.7486 93.0287H46.9346L55.9896 131.588L63.6862 93.0287H77.5704ZM100.944 146.604C96.819 146.604 93.0964 145.723 89.7763 143.963C86.5065 142.202 83.9158 139.687 82.0042 136.417C80.1429 133.147 79.2122 129.324 79.2122 124.947C79.2122 120.621 80.168 116.823 82.0796 113.553C83.9912 110.233 86.6071 107.693 89.9272 105.932C93.2474 104.171 96.9699 103.291 101.095 103.291C105.22 103.291 108.943 104.171 112.263 105.932C115.583 107.693 118.199 110.233 120.11 113.553C122.022 116.823 122.978 120.621 122.978 124.947C122.978 129.274 121.997 133.097 120.035 136.417C118.123 139.687 115.482 142.202 112.112 143.963C108.792 145.723 105.069 146.604 100.944 146.604ZM100.944 135.436C103.409 135.436 105.497 134.53 107.207 132.719C108.968 130.908 109.848 128.318 109.848 124.947C109.848 121.577 108.993 118.986 107.282 117.175C105.622 115.364 103.56 114.459 101.095 114.459C98.5797 114.459 96.492 115.364 94.832 117.175C93.1719 118.936 92.3419 121.527 92.3419 124.947C92.3419 128.318 93.1467 130.908 94.7565 132.719C96.4166 134.53 98.4791 135.436 100.944 135.436ZM140.463 110.912C141.972 108.598 143.858 106.787 146.122 105.479C148.386 104.121 150.901 103.442 153.668 103.442V117.1H150.121C146.902 117.1 144.487 117.804 142.877 119.213C141.267 120.571 140.463 122.985 140.463 126.456V146H127.559V103.895H140.463V110.912ZM183.302 146L170.475 128.343V146H157.571V90.1614H170.475V121.024L183.227 103.895H199.149L181.642 125.023L199.3 146H183.302ZM223.081 114.61H216.139V146H203.236V114.61H198.557V103.895H203.236V102.687C203.236 97.5059 204.72 93.5821 207.688 90.9159C210.656 88.1995 215.007 86.8412 220.742 86.8412C221.698 86.8412 222.402 86.8664 222.855 86.9167V97.858C220.39 97.7071 218.654 98.0593 217.648 98.9144C216.642 99.7696 216.139 101.304 216.139 103.517V103.895H223.081V114.61ZM239.784 90.1614V146H226.88V90.1614H239.784ZM266.037 146.604C261.912 146.604 258.189 145.723 254.869 143.963C251.6 142.202 249.009 139.687 247.097 136.417C245.236 133.147 244.305 129.324 244.305 124.947C244.305 120.621 245.261 116.823 247.173 113.553C249.084 110.233 251.7 107.693 255.02 105.932C258.34 104.171 262.063 103.291 266.188 103.291C270.313 103.291 274.036 104.171 277.356 105.932C280.676 107.693 283.292 110.233 285.203 113.553C287.115 116.823 288.071 120.621 288.071 124.947C288.071 129.274 287.09 133.097 285.128 136.417C283.216 139.687 280.575 142.202 277.205 143.963C273.885 145.723 270.162 146.604 266.037 146.604ZM266.037 135.436C268.502 135.436 270.59 134.53 272.3 132.719C274.061 130.908 274.941 128.318 274.941 124.947C274.941 121.577 274.086 118.986 272.376 117.175C270.715 115.364 268.653 114.459 266.188 114.459C263.673 114.459 261.585 115.364 259.925 117.175C258.265 118.936 257.435 121.527 257.435 124.947C257.435 128.318 258.24 130.908 259.85 132.719C261.51 134.53 263.572 135.436 266.037 135.436ZM353.094 103.895L341.7 146H327.438L320.798 118.684L313.931 146H299.745L288.276 103.895H301.179L307.14 134.002L314.233 103.895H327.891L335.06 133.851L340.945 103.895H353.094Z" fill="url(#paint0_linear_21_2033)"/>
<defs>
<linearGradient id="paint0_linear_21_2033" x1="277.451" y1="99.532" x2="114.5" y2="185" gradientUnits="userSpaceOnUse">
<stop stop-color="#9D9D9D"/>
<stop offset="0.5" stop-color="#EDEDED"/>
<stop offset="1" stop-color="#9D9D9D"/>
</linearGradient>
</defs>
</svg>
